<svg xmlns="http://www.w3.org/2000/svg" width="25.344" height="19.968"><defs><filter id="a"><feFlood flood-color="#36F" flood-opacity="1" result="floodOut"/><feComposite operator="atop" in="floodOut" in2="SourceGraphic" result="compOut"/><feBlend in="compOut" in2="SourceGraphic"/></filter></defs><path fill-rule="evenodd" fill="#2195D7" d="M18.028 13.693a1.558 1.558 0 0 1-1.135.467H2.107c-.442 0-.82-.156-1.135-.467A1.53 1.53 0 0 1 .5 12.568V4.672c.294.325.632.613 1.014.865 2.424 1.631 4.088 2.774 4.992 3.431.382.279.692.496.929.652.238.156.555.314.95.477.395.162.763.244 1.105.244h.02c.342 0 .71-.082 1.105-.244.395-.163.711-.321.949-.477.238-.156.547-.373.929-.652 1.138-.815 2.806-1.959 5.002-3.431a5.506 5.506 0 0 0 1.005-.865v7.896c0 .437-.157.812-.472 1.125zm-1.246-9.221l-4.701 3.233c-.067.046-.209.148-.427.304-.217.156-.398.281-.542.377-.144.097-.318.204-.522.324a3.114 3.114 0 0 1-.578.268 1.6 1.6 0 0 1-.502.089h-.02c-.154 0-.322-.029-.503-.089a3.108 3.108 0 0 1-.577-.268 9.346 9.346 0 0 1-.523-.324 20.514 20.514 0 0 1-.542-.377c-.218-.156-.36-.258-.427-.304A520.827 520.827 0 0 0 4.287 5.89a325.889 325.889 0 0 1-2.06-1.418c-.415-.277-.807-.66-1.175-1.147C.684 2.837.5 2.384.5 1.966c0-.516.139-.948.416-1.292.278-.345.675-.517 1.191-.517h14.785c.436 0 .812.155 1.13.467.318.312.478.686.478 1.124 0 .523-.164 1.024-.493 1.502a4.729 4.729 0 0 1-1.225 1.222z" filter="url(#a)"/></svg>