<svg 
 xmlns="http://www.w3.org/2000/svg"
 xmlns:xlink="http://www.w3.org/1999/xlink"
 width="0.264in" height="0.208in">
<defs>
<filter id="Filter_0">
    <feFlood flood-color="rgb(51, 102, 255)" flood-opacity="1" result="floodOut" />
    <feComposite operator="atop" in="floodOut" in2="SourceGraphic" result="compOut" />
    <feBlend mode="normal" in="compOut" in2="SourceGraphic" />
</filter>

</defs>
<g filter="url(#Filter_0)">
<path fill-rule="evenodd"  fill="rgb(33, 149, 215)"
 d="M18.028,13.693 C17.713,14.004 17.335,14.160 16.893,14.160 L2.107,14.160 C1.665,14.160 1.287,14.004 0.972,13.693 C0.657,13.380 0.500,13.006 0.500,12.568 L0.500,4.671 C0.794,4.997 1.133,5.285 1.514,5.537 C3.938,7.168 5.602,8.312 6.506,8.967 C6.888,9.247 7.198,9.464 7.435,9.619 C7.673,9.775 7.990,9.934 8.385,10.097 C8.780,10.259 9.148,10.341 9.490,10.341 L9.500,10.341 L9.510,10.341 C9.852,10.341 10.220,10.259 10.615,10.097 C11.010,9.934 11.326,9.775 11.564,9.619 C11.802,9.464 12.111,9.247 12.493,8.967 C13.631,8.153 15.299,7.008 17.495,5.537 C17.877,5.279 18.212,4.990 18.500,4.671 L18.500,12.568 C18.500,13.006 18.343,13.380 18.028,13.693 ZM16.782,4.472 C14.264,6.203 12.697,7.280 12.081,7.705 C12.014,7.751 11.872,7.852 11.654,8.008 C11.437,8.164 11.256,8.290 11.112,8.387 C10.968,8.483 10.794,8.590 10.590,8.710 C10.386,8.828 10.193,8.918 10.012,8.978 C9.831,9.038 9.664,9.067 9.510,9.067 L9.500,9.067 L9.490,9.067 C9.336,9.067 9.168,9.038 8.987,8.978 C8.807,8.918 8.614,8.828 8.410,8.710 C8.205,8.590 8.031,8.483 7.887,8.387 C7.744,8.290 7.563,8.164 7.345,8.008 C7.127,7.852 6.985,7.751 6.918,7.705 C6.309,7.280 5.432,6.676 4.287,5.889 C3.141,5.105 2.455,4.632 2.227,4.472 C1.812,4.195 1.421,3.812 1.052,3.325 C0.684,2.837 0.500,2.384 0.500,1.966 C0.500,1.449 0.639,1.018 0.917,0.674 C1.194,0.329 1.591,0.157 2.107,0.157 L16.892,0.157 C17.328,0.157 17.704,0.311 18.022,0.624 C18.341,0.936 18.500,1.310 18.500,1.748 C18.500,2.271 18.336,2.772 18.007,3.250 C17.679,3.727 17.271,4.135 16.782,4.472 Z"/>
</g>
</svg>