<!DOCTYPE svg PUBLIC "-//W3C//DTD SVG 20010904//EN" "http://www.w3.org/TR/2001/REC-SVG-20010904/DTD/svg10.dtd">
<svg version="1.0" xmlns="http://www.w3.org/2000/svg" width="32px" height="32px" viewBox="0 0 320 320" preserveAspectRatio="xMidYMid meet">
<g>
 <path d="M72 300 c-18 -11 -41 -34 -52 -52 -27 -45 -27 -131 0 -176 30 -48 75 -72 140 -72 100 0 160 60 160 160 0 65 -24 110 -72 140 -45 27 -131 27 -176 0z m101 -112 c4 -10 7 -10 18 0 7 6 19 12 27 12 12 0 12 -3 2 -15 -10 -12 -9 -20 4 -40 14 -21 14 -25 2 -25 -9 0 -20 9 -26 20 -6 11 -15 20 -20 20 -6 0 -10 -9 -10 -20 0 -11 -4 -20 -10 -20 -5 0 -10 9 -10 20 0 11 -6 20 -14 20 -8 0 -18 -9 -21 -20 -3 -11 -13 -20 -22 -20 -13 0 -13 3 2 28 20 32 44 52 61 52 7 0 14 -6 17 -12z"/>
 </g>

</svg>