<!DOCTYPE svg PUBLIC "-//W3C//DTD SVG 20010904//EN" "http://www.w3.org/TR/2001/REC-SVG-20010904/DTD/svg10.dtd">
<svg version="1.0" xmlns="http://www.w3.org/2000/svg" width="64px" height="64px" viewBox="0 0 640 640" preserveAspectRatio="xMidYMid meet">
<g>
 <path d="M180 632 c0 -4 -16 -16 -35 -26 -37 -20 -115 -98 -115 -116 0 -6 -7 -13 -15 -16 -22 -9 -22 -299 0 -308 8 -3 15 -10 15 -16 0 -18 78 -96 115 -116 19 -10 35 -22 35 -26 0 -5 63 -8 140 -8 77 0 140 3 140 8 0 4 16 16 35 26 37 20 115 98 115 116 0 6 7 13 15 16 22 9 22 299 0 308 -8 3 -15 10 -15 16 0 18 -78 96 -115 116 -19 10 -35 22 -35 26 0 5 -63 8 -140 8 -77 0 -140 -3 -140 -8z m149 -218 c33 -17 81 -72 81 -94 0 -8 5 -28 12 -47 11 -29 10 -35 -8 -48 -41 -31 -84 -12 -84 37 0 21 -5 28 -20 28 -20 0 -28 -3 -88 -35 l-34 -17 12 22 c6 12 9 28 6 35 -3 8 2 21 10 30 8 8 12 20 9 26 -4 6 2 13 14 16 26 7 27 31 4 49 -16 12 -14 13 18 14 20 0 50 -7 68 -16z"/>
</g>

</svg>