<!DOCTYPE svg PUBLIC "-//W3C//DTD SVG 20010904//EN" "http://www.w3.org/TR/2001/REC-SVG-20010904/DTD/svg10.dtd">
<svg version="1.0" xmlns="http://www.w3.org/2000/svg" width="64px" height="64px" viewBox="0 0 640 640" preserveAspectRatio="xMidYMid meet">
<g>
 <path d="M180 632 c0 -4 -16 -16 -35 -26 -37 -20 -115 -98 -115 -116 0 -6 -7 -13 -15 -16 -22 -9 -22 -299 0 -308 8 -3 15 -10 15 -16 0 -18 78 -96 115 -116 19 -10 35 -22 35 -26 0 -5 63 -8 140 -8 77 0 140 3 140 8 0 4 16 16 35 26 37 20 115 98 115 116 0 6 7 13 15 16 22 9 22 299 0 308 -8 3 -15 10 -15 16 0 18 -78 96 -115 116 -19 10 -35 22 -35 26 0 5 -63 8 -140 8 -77 0 -140 -3 -140 -8z m150 -236 c0 -77 2 -85 20 -88 12 -2 21 -7 21 -13 0 -5 -9 -11 -21 -13 -17 -3 -20 -11 -20 -48 0 -40 2 -44 25 -44 14 0 25 -4 25 -10 0 -14 -64 -12 -78 2 -7 7 -12 31 -12 55 0 36 -3 43 -20 43 -11 0 -20 7 -20 15 0 8 9 15 20 15 18 0 20 7 20 85 0 78 2 85 20 85 18 0 20 -7 20 -84z"/>
</g>

</svg>
