<!DOCTYPE svg PUBLIC "-//W3C//DTD SVG 20010904//EN" "http://www.w3.org/TR/2001/REC-SVG-20010904/DTD/svg10.dtd">
<svg version="1.0" xmlns="http://www.w3.org/2000/svg" width="38px" height="30px" viewBox="0 0 380 300" preserveAspectRatio="xMidYMid meet">
<g>
 <path d="M17 284 c-4 -4 -7 -49 -7 -101 l0 -93 82 55 c46 30 90 55 98 55 8 0 52 -25 98 -55 l83 -56 -3 98 -3 98 -171 3 c-93 1 -173 -1 -177 -4z"/>
 <path d="M134 159 c-101 -64 -125 -89 -122 -123 l3 -31 175 0 175 0 3 31 c3 26 -3 37 -35 61 -43 34 -134 93 -143 93 -3 0 -28 -14 -56 -31z"/>
</g>

</svg>