<!DOCTYPE svg PUBLIC "-//W3C//DTD SVG 20010904//EN" "http://www.w3.org/TR/2001/REC-SVG-20010904/DTD/svg10.dtd">
<svg version="1.0" xmlns="http://www.w3.org/2000/svg" width="264px" height="56px" viewBox="0 0 2640 560" preserveAspectRatio="xMidYMid meet">
<g>
 <path d="M550 541 l-45 -6 0 -45 0 -45 87 -3 c71 -2 90 -6 97 -20 8 -15 3 -17 -51 -14 -79 5 -131 -17 -153 -65 -13 -27 -17 -69 -18 -179 l-2 -144 63 0 62 0 0 120 c0 138 10 160 75 160 l35 0 0 -140 0 -140 60 0 60 0 0 218 c0 259 -5 279 -80 299 -48 12 -117 14 -190 4z"/>
 <path d="M290 440 l0 -29 -137 -3 -138 -3 -3 -192 -2 -193 65 0 65 0 0 135 0 135 50 0 50 0 0 -135 0 -135 65 0 65 0 0 135 c0 128 1 135 20 135 19 0 20 7 20 90 l0 90 -60 0 c-60 0 -60 0 -60 -30z"/>
 <path d="M900 215 l0 -195 65 0 65 0 0 70 0 70 50 0 50 0 0 -70 0 -70 65 0 65 0 -2 193 -3 192 -62 3 -63 3 0 -66 0 -65 -50 0 -49 0 -3 63 -3 62 -62 3 -63 3 0 -196z"/>
 <path d="M1363 396 c-35 -16 -46 -41 -47 -111 -2 -85 37 -115 150 -115 65 0 71 -3 54 -30 -7 -11 -33 -16 -95 -19 l-86 -3 3 -47 3 -46 76 -9 c91 -10 178 5 205 35 17 18 19 42 22 176 2 96 0 159 -7 166 -17 17 -241 20 -278 3z m153 -96 c8 0 14 -10 14 -25 0 -23 -4 -25 -45 -25 -41 0 -45 2 -45 24 0 25 21 38 48 30 8 -2 20 -4 28 -4z"/>
 <path d="M1710 388 c0 -13 9 -97 20 -188 11 -91 20 -169 20 -173 0 -4 30 -7 67 -5 l68 3 28 70 c54 135 44 132 87 25 l38 -95 65 -3 66 -3 6 43 c11 84 35 303 35 326 0 20 -4 22 -59 22 -67 0 -64 6 -77 -120 l-6 -64 -32 84 -32 85 -44 0 -44 0 -32 -85 -32 -84 -6 64 c-13 126 -10 120 -77 120 -55 0 -59 -2 -59 -22z"/>
 <path d="M2277 403 c-4 -3 -7 -91 -7 -195 l0 -188 60 0 59 0 3 86 3 85 62 -85 63 -86 55 0 55 0 0 195 0 195 -60 0 -59 0 -3 -87 -3 -87 -54 72 c-29 40 -63 79 -74 87 -22 15 -88 21 -100 8z"/>
</g>

</svg>
