<svg xmlns="http://www.w3.org/2000/svg" width="25.344" height="19.968"><defs><filter id="a"><feFlood flood-color="#36F" flood-opacity="1" result="floodOut"/><feComposite operator="atop" in="floodOut" in2="SourceGraphic" result="compOut"/><feBlend in="compOut" in2="SourceGraphic"/></filter></defs><path fill-rule="evenodd" fill="#2195D7" d="M18.028 13.693a1.558 1.558 0 0 1-1.135.467H2.107c-.442 0-.82-.156-1.135-.467A1.528 1.528 0 0 1 .5 12.568V4.671c.294.326.633.614 1.014.866 2.424 1.631 4.088 2.775 4.992 3.43.382.28.692.497.929.652.238.156.555.315.95.478.395.162.763.244 1.105.244h.02c.342 0 .71-.082 1.105-.244.395-.163.711-.322.949-.478.238-.155.547-.372.929-.652a211.925 211.925 0 0 1 5.002-3.43 5.472 5.472 0 0 0 1.005-.866v7.897c0 .438-.157.812-.472 1.125zm-1.246-9.221c-2.518 1.731-4.085 2.808-4.701 3.233a36.5 36.5 0 0 0-.427.303 11.187 11.187 0 0 1-1.064.702 3.15 3.15 0 0 1-.578.268 1.6 1.6 0 0 1-.502.089h-.02c-.154 0-.322-.029-.503-.089-.18-.06-.373-.15-.577-.268a10.762 10.762 0 0 1-1.065-.702 36.5 36.5 0 0 0-.427-.303 507.78 507.78 0 0 0-2.631-1.816 301.485 301.485 0 0 1-2.06-1.417c-.415-.277-.806-.66-1.175-1.147C.684 2.837.5 2.384.5 1.966c0-.517.139-.948.417-1.292.277-.345.674-.517 1.19-.517h14.785c.436 0 .812.154 1.13.467.319.312.478.686.478 1.124 0 .523-.164 1.024-.493 1.502a4.729 4.729 0 0 1-1.225 1.222z" filter="url(#a)"/></svg>