<!DOCTYPE svg PUBLIC "-//W3C//DTD SVG 20010904//EN" "http://www.w3.org/TR/2001/REC-SVG-20010904/DTD/svg10.dtd">
<svg version="1.0" xmlns="http://www.w3.org/2000/svg" width="64px" height="61px" viewBox="0 0 640 610" preserveAspectRatio="xMidYMid meet">
<g>
 <path d="M26 588 c-6 -28 -26 -256 -26 -292 0 -26 0 -26 83 -26 l82 0 38 -83 c28 -62 37 -95 37 -134 l0 -53 35 0 c68 0 106 77 88 175 l-10 55 128 0 c103 0 131 3 143 16 19 19 21 69 3 85 -7 7 -11 26 -9 44 2 19 -2 38 -10 45 -8 8 -12 26 -10 45 2 20 -2 38 -12 48 -9 8 -16 28 -16 44 0 50 -10 53 -197 53 -160 0 -175 -2 -193 -20 -11 -11 -24 -20 -30 -20 -5 0 -10 9 -10 20 0 18 -7 20 -55 20 -49 0 -55 -2 -59 -22z m94 -148 l0 -150 -45 0 c-53 0 -50 -13 -34 173 l12 127 34 0 33 0 0 -150z m414 134 c20 -20 20 -19 -6 -44 -18 -17 -19 -20 -5 -20 9 0 26 -9 38 -21 l21 -21 -23 -24 c-12 -13 -17 -24 -11 -24 7 0 21 -9 33 -21 l21 -21 -21 -22 -21 -23 25 -11 c30 -14 33 -47 6 -62 -11 -5 -76 -10 -145 -10 l-125 0 7 -32 c4 -18 7 -59 7 -91 0 -52 -3 -62 -28 -83 -15 -13 -32 -24 -38 -24 -5 0 -9 26 -9 57 0 79 -61 213 -97 213 -23 0 -23 0 -23 130 0 125 1 130 21 130 11 0 32 9 46 20 23 18 41 20 169 20 116 0 145 -3 158 -16z"/>
 <path d="M80 560 c0 -5 5 -10 10 -10 6 0 10 5 10 10 0 6 -4 10 -10 10 -5 0 -10 -4 -10 -10z"/>
 <path d="M80 520 c0 -5 5 -10 10 -10 6 0 10 5 10 10 0 6 -4 10 -10 10 -5 0 -10 -4 -10 -10z"/>
 <path d="M80 480 c0 -5 5 -10 10 -10 6 0 10 5 10 10 0 6 -4 10 -10 10 -5 0 -10 -4 -10 -10z"/>
 <path d="M80 440 c0 -5 5 -10 10 -10 6 0 10 5 10 10 0 6 -4 10 -10 10 -5 0 -10 -4 -10 -10z"/>
 <path d="M80 400 c0 -5 5 -10 10 -10 6 0 10 5 10 10 0 6 -4 10 -10 10 -5 0 -10 -4 -10 -10z"/>
 <path d="M80 360 c0 -5 5 -10 10 -10 6 0 10 5 10 10 0 6 -4 10 -10 10 -5 0 -10 -4 -10 -10z"/>
 <path d="M80 320 c0 -5 5 -10 10 -10 6 0 10 5 10 10 0 6 -4 10 -10 10 -5 0 -10 -4 -10 -10z"/>
</g>

</svg>