<!DOCTYPE svg PUBLIC "-//W3C//DTD SVG 20010904//EN" "http://www.w3.org/TR/2001/REC-SVG-20010904/DTD/svg10.dtd">
<svg version="1.0" xmlns="http://www.w3.org/2000/svg" width="62px" height="71px" viewBox="0 0 620 710" preserveAspectRatio="xMidYMid meet">
<g fill="#ffffff">
 <path d="M172 680 c-112 -57 -172 -153 -172 -280 0 -131 64 -230 184 -286 28 -13 59 -24 69 -24 9 0 17 -4 17 -10 0 -5 -9 -10 -20 -10 -16 0 -20 -7 -20 -35 l0 -35 80 0 80 0 0 35 c0 28 -4 35 -20 35 -32 0 -23 18 13 25 17 4 49 16 70 27 22 11 40 18 42 16 1 -2 8 -13 14 -25 15 -29 42 -29 69 0 29 30 28 55 -2 68 l-23 11 33 65 c30 57 34 73 34 142 0 67 -4 87 -30 139 -57 113 -153 172 -281 172 -65 0 -85 -4 -137 -30z m258 -23 c138 -65 203 -237 139 -372 -87 -183 -318 -226 -459 -85 -112 112 -112 288 0 400 86 86 209 108 320 57z m-100 -577 c0 -5 -9 -10 -20 -10 -11 0 -20 5 -20 10 0 6 9 10 20 10 11 0 20 -4 20 -10z m40 -45 c0 -12 -13 -15 -60 -15 -47 0 -60 3 -60 15 0 12 13 15 60 15 47 0 60 -3 60 -15z"/>
 <path d="M236 653 c-11 -11 -6 -23 9 -23 8 0 15 4 15 9 0 13 -16 22 -24 14z"/>
 <path d="M366 653 c-11 -11 -6 -23 9 -23 8 0 15 4 15 9 0 13 -16 22 -24 14z"/>
 <path d="M172 619 c2 -6 8 -10 13 -10 5 0 11 4 13 10 2 6 -4 11 -13 11 -9 0 -15 -5 -13 -11z"/>
 <path d="M422 619 c2 -6 8 -10 13 -10 5 0 11 4 13 10 2 6 -4 11 -13 11 -9 0 -15 -5 -13 -11z"/>
 <path d="M120 574 c0 -17 22 -14 28 4 2 7 -3 12 -12 12 -9 0 -16 -7 -16 -16z"/>
 <path d="M472 578 c6 -18 28 -21 28 -4 0 9 -7 16 -16 16 -9 0 -14 -5 -12 -12z"/>
 <path d="M80 525 c0 -9 5 -15 11 -13 6 2 11 8 11 13 0 5 -5 11 -11 13 -6 2 -11 -4 -11 -13z"/>
 <path d="M517 534 c-8 -8 1 -24 14 -24 5 0 9 7 9 15 0 15 -12 20 -23 9z"/>
 <path d="M57 474 c-8 -8 1 -24 14 -24 5 0 9 7 9 15 0 15 -12 20 -23 9z"/>
 <path d="M540 465 c0 -9 5 -15 11 -13 6 2 11 8 11 13 0 5 -5 11 -11 13 -6 2 -11 -4 -11 -13z"/>
 <path d="M335 451 c-6 -5 -21 -11 -35 -13 -18 -2 -26 -10 -28 -29 -2 -15 -25 -47 -58 -79 -47 -48 -67 -80 -48 -80 4 0 33 24 65 54 35 33 70 56 86 58 21 2 29 9 31 28 2 14 8 30 14 37 18 22 -7 43 -27 24z"/>
 <path d="M57 344 c-8 -8 1 -24 14 -24 5 0 9 7 9 15 0 15 -12 20 -23 9z"/>
 <path d="M540 335 c0 -9 5 -15 11 -13 6 2 11 8 11 13 0 5 -5 11 -11 13 -6 2 -11 -4 -11 -13z"/>
 <path d="M80 275 c0 -9 5 -15 11 -13 6 2 11 8 11 13 0 5 -5 11 -11 13 -6 2 -11 -4 -11 -13z"/>
 <path d="M517 283 c-12 -11 -8 -23 8 -23 8 0 15 7 15 15 0 16 -12 20 -23 8z"/>
 <path d="M120 226 c0 -9 7 -16 16 -16 17 0 14 22 -4 28 -7 2 -12 -3 -12 -12z"/>
 <path d="M477 233 c-12 -11 -8 -23 8 -23 8 0 15 7 15 15 0 16 -12 20 -23 8z"/>
 <path d="M176 193 c-11 -11 -6 -23 9 -23 8 0 15 4 15 9 0 13 -16 22 -24 14z"/>
 <path d="M426 193 c-11 -11 -6 -23 9 -23 8 0 15 4 15 9 0 13 -16 22 -24 14z"/>
 <path d="M232 159 c2 -6 8 -10 13 -10 5 0 11 4 13 10 2 6 -4 11 -13 11 -9 0 -15 -5 -13 -11z"/>
 <path d="M362 159 c2 -6 8 -10 13 -10 5 0 11 4 13 10 2 6 -4 11 -13 11 -9 0 -15 -5 -13 -11z"/>
 </g>

</svg>
