<svg xmlns="http://www.w3.org/2000/svg" viewBox="0 0 73.79 14.32"><defs><style>.a{fill:#fff;}</style></defs><title>tsunami.group_logo-footer</title><path class="a" d="M10.37,8.14h.86a.24.24,0,0,1,.28.28v4.11a.24.24,0,0,1-.28.28H8.5a.24.24,0,0,1-.28-.28V11.1H.77a.24.24,0,0,1-.28-.28V1A.24.24,0,0,1,.77.7H3.61A.24.24,0,0,1,3.89,1V8.14H7V1A.24.24,0,0,1,7.25.7h2.84a.24.24,0,0,1,.28.28Z" transform="translate(-0.49 -0.61)"/><path class="a" d="M22.78.7a.24.24,0,0,1,.28.28V11.22a4.24,4.24,0,0,1-.44,2.29c-.48.94-1.71,1.41-4.18,1.41a19.67,19.67,0,0,1-3.8-.29.27.27,0,0,1-.24-.29V12.64c0-.18.07-.28.24-.28h3.47c1.38,0,1.74-.28,1.74-1.28v-.13a9.21,9.21,0,0,1-2.16.24,4.48,4.48,0,0,1-3.39-1.06,5.21,5.21,0,0,1-1-3.52V1A.24.24,0,0,1,13.59.7h2.64a.24.24,0,0,1,.28.28V5.89a3.66,3.66,0,0,0,.39,2.05,2.19,2.19,0,0,0,1.65.48,6.38,6.38,0,0,0,1.3-.11V1A.24.24,0,0,1,20.12.7Z" transform="translate(-0.49 -0.61)"/><path class="a" d="M35.18.7a.24.24,0,0,1,.27.28v9.85a.24.24,0,0,1-.27.28H32.33a.24.24,0,0,1-.28-.28V7.54H28.89v3.28a.24.24,0,0,1-.28.28H25.77a.24.24,0,0,1-.28-.28V1A.24.24,0,0,1,25.77.7h2.84a.24.24,0,0,1,.28.28V4.53h3.17V1A.24.24,0,0,1,32.33.7Z" transform="translate(-0.49 -0.61)"/><path class="a" d="M45.79,1.54a2.86,2.86,0,0,1,.81,2.37v6.31a.54.54,0,0,1-.46.59,20.86,20.86,0,0,1-4.2.39,11,11,0,0,1-2.84-.24c-1.19-.33-1.61-1-1.72-2.68V7.8a2.62,2.62,0,0,1,1-2.37,5.79,5.79,0,0,1,3-.61l2,0V4.44c0-.72-.46-1.08-1.39-1.08H38.4c-.2,0-.26-.06-.26-.28V1.21c0-.22.06-.24.26-.29A18.19,18.19,0,0,1,42,.61C43.92.61,45.19.9,45.79,1.54Zm-2.4,5.19H41.68c-1,0-1.16.24-1.16.84v.2c0,.66.29.84,1.25.84a7.44,7.44,0,0,0,1.61-.15Z" transform="translate(-0.49 -0.61)"/><path class="a" d="M61.1.7a.23.23,0,0,1,.24.22l1.16,9.94c0,.17-.06.24-.22.24H59.47c-.13,0-.2-.07-.22-.24l-.59-5.39-1.93,5.08a.34.34,0,0,1-.33.24h-1.8a.34.34,0,0,1-.33-.24L52.37,5.47l-.6,5.39c0,.17-.09.24-.22.24H48.74q-.25,0-.22-.22L49.7.94A.24.24,0,0,1,50,.7h2.31c.64,0,.94.11,1.1.55l2.15,5.32,2.15-5.34c.16-.44.46-.53,1.1-.53Z" transform="translate(-0.49 -0.61)"/><path class="a" d="M74.06.7c.15,0,.22.07.22.24v9.92c0,.17-.07.24-.22.24H71.35c-.13,0-.2-.07-.2-.24V6l-3.61,4.62a1.16,1.16,0,0,1-1,.44H64.73c-.15,0-.22-.07-.22-.24V.94c0-.17.07-.24.22-.24h2.71c.15,0,.22.07.22.24v4.9L71.2,1.21a1.16,1.16,0,0,1,1-.51Z" transform="translate(-0.49 -0.61)"/></svg>