<svg version="1" xmlns="http://www.w3.org/2000/svg" width="62" height="71" viewBox="0 0 620 710"><g fill="#fff"><path d="M172 680C60 623 0 527 0 400c0-131 64-230 184-286 28-13 59-24 69-24 9 0 17-4 17-10 0-5-9-10-20-10-16 0-20-7-20-35V0h160v35c0 28-4 35-20 35-32 0-23 18 13 25 17 4 49 16 70 27 22 11 40 18 42 16 1-2 8-13 14-25 15-29 42-29 69 0 29 30 28 55-2 68l-23 11 33 65c30 57 34 73 34 142 0 67-4 87-30 139-57 113-153 172-281 172-65 0-85-4-137-30zm258-23c138-65 203-237 139-372-87-183-318-226-459-85C-2 312-2 488 110 600c86 86 209 108 320 57zM330 80c0-5-9-10-20-10s-20 5-20 10c0 6 9 10 20 10s20-4 20-10zm40-45c0-12-13-15-60-15s-60 3-60 15 13 15 60 15 60-3 60-15z"/><path d="M236 653c-11-11-6-23 9-23 8 0 15 4 15 9 0 13-16 22-24 14zM366 653c-11-11-6-23 9-23 8 0 15 4 15 9 0 13-16 22-24 14zM172 619c2-6 8-10 13-10s11 4 13 10-4 11-13 11-15-5-13-11zM422 619c2-6 8-10 13-10s11 4 13 10-4 11-13 11-15-5-13-11zM120 574c0-17 22-14 28 4 2 7-3 12-12 12s-16-7-16-16zM472 578c6-18 28-21 28-4 0 9-7 16-16 16s-14-5-12-12zM80 525c0-9 5-15 11-13s11 8 11 13-5 11-11 13-11-4-11-13zM517 534c-8-8 1-24 14-24 5 0 9 7 9 15 0 15-12 20-23 9zM57 474c-8-8 1-24 14-24 5 0 9 7 9 15 0 15-12 20-23 9zM540 465c0-9 5-15 11-13s11 8 11 13-5 11-11 13-11-4-11-13zM335 451c-6-5-21-11-35-13-18-2-26-10-28-29-2-15-25-47-58-79-47-48-67-80-48-80 4 0 33 24 65 54 35 33 70 56 86 58 21 2 29 9 31 28 2 14 8 30 14 37 18 22-7 43-27 24zM57 344c-8-8 1-24 14-24 5 0 9 7 9 15 0 15-12 20-23 9zM540 335c0-9 5-15 11-13s11 8 11 13-5 11-11 13-11-4-11-13zM80 275c0-9 5-15 11-13s11 8 11 13-5 11-11 13-11-4-11-13zM517 283c-12-11-8-23 8-23 8 0 15 7 15 15 0 16-12 20-23 8zM120 226c0-9 7-16 16-16 17 0 14 22-4 28-7 2-12-3-12-12zM477 233c-12-11-8-23 8-23 8 0 15 7 15 15 0 16-12 20-23 8zM176 193c-11-11-6-23 9-23 8 0 15 4 15 9 0 13-16 22-24 14zM426 193c-11-11-6-23 9-23 8 0 15 4 15 9 0 13-16 22-24 14zM232 159c2-6 8-10 13-10s11 4 13 10-4 11-13 11-15-5-13-11zM362 159c2-6 8-10 13-10s11 4 13 10-4 11-13 11-15-5-13-11z"/></g></svg>