<svg version="1" xmlns="http://www.w3.org/2000/svg" width="64" height="61" viewBox="0 0 640 610"><path d="M26 588C20 560 0 332 0 296c0-26 0-26 83-26h82l38-83c28-62 37-95 37-134V0h35c68 0 106 77 88 175l-10 55h128c103 0 131 3 143 16 19 19 21 69 3 85-7 7-11 26-9 44 2 19-2 38-10 45-8 8-12 26-10 45 2 20-2 38-12 48-9 8-16 28-16 44 0 50-10 53-197 53-160 0-175-2-193-20-11-11-24-20-30-20-5 0-10 9-10 20 0 18-7 20-55 20-49 0-55-2-59-22zm94-148V290H75c-53 0-50-13-34 173l12 127h67V440zm414 134c20-20 20-19-6-44-18-17-19-20-5-20 9 0 26-9 38-21l21-21-23-24c-12-13-17-24-11-24 7 0 21-9 33-21l21-21-21-22-21-23 25-11c30-14 33-47 6-62-11-5-76-10-145-10H321l7-32c4-18 7-59 7-91 0-52-3-62-28-83-15-13-32-24-38-24-5 0-9 26-9 57 0 79-61 213-97 213-23 0-23 0-23 130 0 125 1 130 21 130 11 0 32 9 46 20 23 18 41 20 169 20 116 0 145-3 158-16z"/></svg>