<svg xmlns="http://www.w3.org/2000/svg" viewBox="0 0 73.79 14.32"><defs><style>.a{fill:#fff}</style></defs><title>tsunami.group_logo-footer</title><path class="a" d="M9.88 7.53h.86a.24.24 0 0 1 .28.28v4.11a.24.24 0 0 1-.28.28H8.01a.24.24 0 0 1-.28-.28v-1.43H.28a.24.24 0 0 1-.28-.28V.39a.24.24 0 0 1 .28-.3h2.84a.24.24 0 0 1 .28.3v7.14h3.11V.39a.24.24 0 0 1 .25-.3H9.6a.24.24 0 0 1 .28.28zM22.29.09a.24.24 0 0 1 .28.28v10.24a4.24 4.24 0 0 1-.44 2.29c-.48.94-1.71 1.41-4.18 1.41a19.67 19.67 0 0 1-3.8-.29.27.27 0 0 1-.24-.29v-1.7c0-.18.07-.28.24-.28h3.47c1.38 0 1.74-.28 1.74-1.28v-.13a9.21 9.21 0 0 1-2.16.24 4.48 4.48 0 0 1-3.39-1.06 5.21 5.21 0 0 1-1-3.52V.39a.24.24 0 0 1 .29-.3h2.64a.24.24 0 0 1 .28.28v4.91a3.66 3.66 0 0 0 .39 2.05 2.19 2.19 0 0 0 1.65.48 6.38 6.38 0 0 0 1.3-.11V.39a.24.24 0 0 1 .27-.3zM34.69.09a.24.24 0 0 1 .27.28v9.85a.24.24 0 0 1-.27.28h-2.85a.24.24 0 0 1-.28-.28V6.93H28.4v3.28a.24.24 0 0 1-.28.28h-2.84a.24.24 0 0 1-.28-.28V.39a.24.24 0 0 1 .28-.3h2.84a.24.24 0 0 1 .28.28v3.55h3.17V.39a.24.24 0 0 1 .27-.3zM45.3.93a2.86 2.86 0 0 1 .81 2.37v6.31a.54.54 0 0 1-.46.59 20.86 20.86 0 0 1-4.2.39 11 11 0 0 1-2.84-.24c-1.19-.33-1.61-1-1.72-2.68v-.48a2.62 2.62 0 0 1 1-2.37 5.79 5.79 0 0 1 3-.61h2v-.38c0-.72-.46-1.08-1.39-1.08h-3.59c-.2 0-.26-.06-.26-.28V.6c0-.22.06-.24.26-.29a18.19 18.19 0 0 1 3.6-.31c1.92 0 3.19.29 3.79.93zm-2.4 5.19h-1.71c-1 0-1.16.24-1.16.84v.2c0 .66.29.84 1.25.84a7.44 7.44 0 0 0 1.61-.15zM60.61.09a.23.23 0 0 1 .24.22l1.16 9.94c0 .17-.06.24-.22.24h-2.81c-.13 0-.2-.07-.22-.24l-.59-5.39-1.93 5.08a.34.34 0 0 1-.33.24h-1.8a.34.34 0 0 1-.33-.24l-1.9-5.08-.6 5.39c0 .17-.09.24-.22.24h-2.81q-.25 0-.22-.22L49.21.33a.24.24 0 0 1 .3-.24h2.31c.64 0 .94.11 1.1.55l2.15 5.32L57.22.62c.16-.44.46-.53 1.1-.53zM73.57.09c.15 0 .22.07.22.24v9.92c0 .17-.07.24-.22.24h-2.71c-.13 0-.2-.07-.2-.24V5.39l-3.61 4.62a1.16 1.16 0 0 1-1 .44h-1.81c-.15 0-.22-.07-.22-.24V.33c0-.17.07-.24.22-.24h2.71c.15 0 .22.07.22.24v4.9L70.71.6a1.16 1.16 0 0 1 1-.51z"/></svg>